<svg xmlns="http://www.w3.org/2000/svg" width="40" height="40" viewBox="0 0 40 40" fill="none"><path d="M37.6998 30.4L4.9998 36.2001L2.2998 34.4001L34.9998 28.7001V3.80005L37.6998 5.60005V30.4Z" fill="#333333"></path><path d="M34.9998 28.7001L2.2998 34.4001V9.60005L34.9998 3.80005V28.7001Z" fill="#00796B"></path><path d="M10.1999 29C9.1999 28.6 8.2999 28 7.7999 27.2C7.1999 26.4 6.8999 25.4 6.8999 24.2V18.6C6.8999 17.5 7.1999 16.4 7.7999 15.3C8.3999 14.3 9.1999 13.4 10.1999 12.6C11.1999 11.9 12.3999 11.4 13.6999 11.2C14.9999 11 16.1999 11 17.1999 11.4C18.1999 11.8 18.9999 12.4 19.5999 13.2C20.1999 14 20.4999 15 20.4999 16.2V21.8C20.4999 23 20.1999 24.1 19.5999 25.1C18.9999 26.1 18.1999 27 17.1999 27.7C16.1999 28.4 14.9999 28.9 13.6999 29.1C12.3999 29.4 11.2999 29.4 10.1999 29ZM15.6999 24.3C16.0999 23.8 16.3999 23.1 16.3999 22.3V17.1C16.3999 16.3 16.1999 15.8 15.6999 15.4C15.1999 15 14.5999 14.9 13.7999 15.1C12.9999 15.2 12.2999 15.6 11.8999 16.1C11.3999 16.6 11.1999 17.3 11.1999 18.1V23.3C11.1999 24.1 11.3999 24.6 11.8999 25C12.3999 25.4 12.9999 25.5 13.7999 25.3C14.5999 25.1 15.2999 24.8 15.6999 24.3Z" fill="white"></path><path d="M29.1002 8.60005L23.2002 17.2L24.8002 16.9L30.7002 8.30005L29.1002 8.60005Z" fill="white"></path><path d="M31.4001 12.5C31.1001 12.2 30.7001 12.1 30.2001 12.1C30.1001 12.1 29.9001 12.1 29.8001 12.1C28.6001 12.3 27.6001 13.4 27.6001 14.5C27.6001 15 27.8001 15.5 28.1001 15.8C28.5001 16.1 29.0001 16.3 29.7001 16.2C31.0001 16 31.9001 15 32.0001 13.8C32.0001 13.3 31.8001 12.8 31.4001 12.5ZM29.8001 15C29.7001 15 29.7001 15 29.6001 15C29.4001 15 29.3001 14.9 29.2001 14.8C29.1001 14.7 29.0001 14.5 29.0001 14.3C29.0001 13.9 29.3001 13.5 29.8001 13.4C30.0001 13.4 30.2001 13.4 30.4001 13.5C30.5001 13.6 30.6001 13.8 30.6001 14C30.6001 14.5 30.3001 14.9 29.8001 15Z" fill="white"></path><path d="M26.1999 10.9999C26.1999 10.4999 25.9999 9.99994 25.6999 9.69994C25.2999 9.39994 24.7999 9.19994 24.0999 9.29994C22.8999 9.49994 21.8999 10.5999 21.8999 11.6999C21.8999 12.1999 22.0999 12.6999 22.3999 12.9999C22.7999 13.2999 23.2999 13.4999 23.9999 13.3999C25.1999 13.1999 26.0999 12.0999 26.1999 10.9999ZM23.9999 12.1999C23.8999 12.1999 23.8999 12.1999 23.7999 12.1999C23.5999 12.1999 23.4999 12.0999 23.3999 11.9999C23.2999 11.8999 23.1999 11.6999 23.1999 11.4999C23.1999 11.0999 23.4999 10.6999 23.9999 10.5999C24.1999 10.5999 24.3999 10.5999 24.5999 10.6999C24.6999 10.7999 24.7999 10.9999 24.7999 11.1999C24.7999 11.6999 24.4999 12.0999 23.9999 12.1999Z" fill="white"></path></svg>