<svg xmlns="http://www.w3.org/2000/svg" width="21" height="16" viewBox="0 0 21 16" fill="none"><path d="M19.9062 5.5C20.0938 5.83333 20.0833 6.16667 19.875 6.5C19.6875 6.83333 19.4062 7 19.0312 7H18.0312V15.5C18.0312 15.6458 17.9792 15.7604 17.875 15.8438C17.7917 15.9479 17.6771 16 17.5312 16H17.0312C16.8854 16 16.7604 15.9479 16.6562 15.8438C16.5729 15.7604 16.5312 15.6458 16.5312 15.5V7H12.0312V14.9062C12.0312 15.1979 11.9271 15.4479 11.7188 15.6562C11.5312 15.8854 11.3021 16 11.0312 16H3.03125C2.76042 16 2.52083 15.8854 2.3125 15.6562C2.125 15.4479 2.03125 15.1979 2.03125 14.9062V7H1.03125C0.65625 7 0.364583 6.83333 0.15625 6.5C-0.03125 6.16667 -0.03125 5.83333 0.15625 5.5L3.03125 0.5C3.21875 0.166667 3.51042 0 3.90625 0H16.1562C16.5521 0 16.8438 0.166667 17.0312 0.5L19.9062 5.5ZM10.5312 14.5V11.5H3.53125V14.5H10.5312ZM10.5312 10V7H3.53125V10H10.5312ZM1.90625 5.5H18.1562L15.875 1.5H4.1875L1.90625 5.5Z" fill="#222222"></path></svg>