<svg xmlns="http://www.w3.org/2000/svg" width="40" height="40" viewBox="0 0 40 40" fill="none"><g clip-path="url(#clip0_1_2759)"><mask id="mask0_1_2759" style="mask-type:luminance" maskUnits="userSpaceOnUse" x="0" y="0" width="40" height="40"><path d="M40 0H0V40H40V0Z" fill="white"></path></mask><g mask="url(#mask0_1_2759)"><path d="M21.3002 4.49998L25.2002 2.59998L27.7002 4.79998L29.5002 7.69998L30.5002 5.39998L33.1002 7.59998L33.3002 9.39998L33.5002 11.2L34.1002 10.3L36.7002 12.5L35.7002 16.2L37.9002 18.8L35.7002 22.1L36.7002 25.5L33.5002 27.8L33.0002 31.5L29.4002 32.5L27.6002 36L24.1002 35.6L21.2002 38.3L18.3002 36.5L14.8002 38L12.2002 35.8L13.0002 35.1L9.4002 35.2L6.8002 33L9.0002 31.7L5.8002 30.4L3.2002 28.2L6.7002 26.7L4.5002 24.1L6.7002 20.8L5.7002 17.4L9.0002 15.1L9.5002 11.4L13.1002 10.4L14.9002 6.89998L18.4002 7.29998L21.3002 4.49998Z" fill="#333333"></path><path d="M18.7 2.40002L21.5 4.40002L25 2.70002L26.7 5.80002L30.4 5.50002L30.7 9.20002L34 10.4L33 14.1L35.4 16.6L33 19.9L34.1 23.3L30.8 25.6L30.5 29.4L26.8 30.3L25.1 33.9L21.6 33.3L18.8 36.2L15.9 34.2L12.4 35.9L10.7 32.8L7 33.1L6.7 29.4L3.4 28.2L4.5 24.4L2 21.9L4.4 18.6L3.3 15.2L6.6 13L6.9 9.20002L10.6 8.30002L12.3 4.70002L15.8 5.30002L18.7 2.40002Z" fill="#00796B"></path><path fill-rule="evenodd" clip-rule="evenodd" d="M11.3999 14.8V27.3L14.0999 26.9V17.3L18.2999 23.4L19.5999 23.2L20.8999 23L26.8999 12.4L23.7999 12.9L19.5999 20.3L15.3999 14.2L11.3999 14.8Z" fill="white"></path><path fill-rule="evenodd" clip-rule="evenodd" d="M25.2998 25.1C26.1998 25 26.7998 24.2 26.7998 23.3C26.7998 22.4 26.0998 21.8 25.2998 22C24.3998 22.1 23.7998 22.9 23.7998 23.8C23.7998 24.6 24.4998 25.2 25.2998 25.1Z" fill="white"></path></g></g><defs><clipPath id="clip0_1_2759"><rect width="40" height="40" fill="white"></rect></clipPath></defs></svg>