<svg xmlns="http://www.w3.org/2000/svg" width="20" height="16" viewBox="0 0 20 16" fill="none"><path d="M19.5 11.5C19.6458 11.5 19.7604 11.5521 19.8438 11.6562C19.9479 11.7396 20 11.8542 20 12V12.5C20 12.6458 19.9479 12.7708 19.8438 12.875C19.7604 12.9583 19.6458 13 19.5 13H18C18 13.8333 17.7083 14.5417 17.125 15.125C16.5417 15.7083 15.8333 16 15 16C14.1667 16 13.4583 15.7083 12.875 15.125C12.2917 14.5417 12 13.8333 12 13H8C8 13.8333 7.70833 14.5417 7.125 15.125C6.54167 15.7083 5.83333 16 5 16C4.16667 16 3.45833 15.7083 2.875 15.125C2.29167 14.5417 2 13.8333 2 13H1.75C1.27083 13 0.854167 12.8333 0.5 12.5C0.166667 12.1458 0 11.7292 0 11.25V1.75C0 1.27083 0.166667 0.864583 0.5 0.53125C0.854167 0.177083 1.27083 0 1.75 0H11.25C11.7292 0 12.1354 0.177083 12.4688 0.53125C12.8229 0.864583 13 1.27083 13 1.75V3H14.125C14.75 3 15.2812 3.21875 15.7188 3.65625L18.3438 6.28125C18.7812 6.71875 19 7.25 19 7.875V11.5H19.5ZM3.9375 14.0625C4.22917 14.3542 4.58333 14.5 5 14.5C5.41667 14.5 5.77083 14.3542 6.0625 14.0625C6.35417 13.7708 6.5 13.4167 6.5 13C6.5 12.5833 6.35417 12.2292 6.0625 11.9375C5.77083 11.6458 5.41667 11.5 5 11.5C4.58333 11.5 4.22917 11.6458 3.9375 11.9375C3.64583 12.2292 3.5 12.5833 3.5 13C3.5 13.4167 3.64583 13.7708 3.9375 14.0625ZM11.5 11.5V1.75C11.5 1.58333 11.4167 1.5 11.25 1.5H1.75C1.58333 1.5 1.5 1.58333 1.5 1.75V11.25C1.5 11.4167 1.58333 11.5 1.75 11.5H2.40625C2.67708 11.0417 3.04167 10.6771 3.5 10.4062C3.95833 10.1354 4.45833 10 5 10C5.54167 10 6.04167 10.1354 6.5 10.4062C6.95833 10.6771 7.32292 11.0417 7.59375 11.5H11.5ZM13 4.5V7H16.9375L14.6562 4.71875C14.5104 4.57292 14.3333 4.5 14.125 4.5H13ZM13.9375 14.0625C14.2292 14.3542 14.5833 14.5 15 14.5C15.4167 14.5 15.7708 14.3542 16.0625 14.0625C16.3542 13.7708 16.5 13.4167 16.5 13C16.5 12.5833 16.3542 12.2292 16.0625 11.9375C15.7708 11.6458 15.4167 11.5 15 11.5C14.5833 11.5 14.2292 11.6458 13.9375 11.9375C13.6458 12.2292 13.5 12.5833 13.5 13C13.5 13.4167 13.6458 13.7708 13.9375 14.0625ZM17.5 11.3438V8.5H13V10.7812C13.5833 10.2604 14.25 10 15 10C16.0625 10 16.8958 10.4479 17.5 11.3438Z" fill="#222222"></path></svg>