<svg xmlns="http://www.w3.org/2000/svg" width="40" height="40" viewBox="0 0 40 40" fill="none"><g clip-path="url(#clip0_1_2773)"><mask id="mask0_1_2773" style="mask-type:luminance" maskUnits="userSpaceOnUse" x="0" y="0" width="40" height="40"><path d="M40 0H0V40H40V0Z" fill="white"></path></mask><g mask="url(#mask0_1_2773)"><path d="M32.3001 33.4C38.8001 26.3 39.2001 16.2 33.3001 10.7C27.4001 5.3 17.3001 6.6 10.8001 13.7C4.30007 20.8 3.90007 30.9 9.80007 36.4C15.7001 41.8 25.8001 40.5 32.3001 33.4Z" fill="#333333"></path><path d="M26.2 5.1V1.8L23.4 0V3.3L14 5L16.8 6.8L26.2 5.1Z" fill="#333333"></path><path d="M20.8002 5.6V3.8L23.4002 3.3V0L14.0002 1.7V5L16.6002 4.5V6.3C8.8002 8.7 2.7002 16.5 2.7002 24.5C2.7002 33.3 9.8002 39.2 18.6002 37.6C27.4002 36.1 34.5002 27.7 34.5002 18.9C34.6002 10.9 28.6002 5.2 20.8002 5.6Z" fill="#00796B"></path><path d="M11.3002 27.4L14.8002 26.8V13.6L12.1002 14.1L8.7002 16.7V20L11.2002 18.2V27.4H11.3002Z" fill="white"></path><path d="M26.0001 17C25.3001 16.4 24.2001 16.2 23.1001 16.4C21.9001 16.6 21.0001 17.2 20.6001 17.7L20.5001 17.8V15.6L26.7001 14.5V11.7L17.2001 13.4V20.9L20.4001 20.3C20.6001 19.9 21.0001 19.5 21.9001 19.3C22.4001 19.2 22.8001 19.3 23.1001 19.5C23.4001 19.8 23.6001 20.2 23.6001 20.7C23.6001 21.7 22.9001 22.5 21.9001 22.7C20.9001 22.9 20.3001 22.2 20.2001 21.9L16.6001 22.5C16.6001 23.6 17.1001 24.5 17.8001 25.1C18.8001 25.9 20.1001 26.1 21.8001 25.8C25.0001 25.2 27.1001 22.9 27.1001 19.9C27.1001 18.7 26.8001 17.7 26.0001 17Z" fill="white"></path><path d="M11.2998 29.5V33.2L12.2998 33V30.1L13.4998 32.7L14.1998 32.6L15.3998 29.5V32.4L16.3998 32.2V28.5L14.8998 28.8L13.8998 31.3L12.7998 29.1L11.2998 29.5Z" fill="white"></path><path d="M18.7002 28.2L17.7002 28.4V32.0999L18.8002 31.9L20.5002 29.2V31.6L21.6002 31.4V27.7L20.5002 27.9L18.8002 30.6V28.2H18.7002Z" fill="white"></path><path d="M23.7001 27.4L22.6001 27.6V31.3L23.7001 31.1V29.7L25.3001 29.4V30.8L26.4001 30.6V26.9L25.3001 27.1V28.4L23.7001 28.7V27.4Z" fill="white"></path></g></g><defs><clipPath id="clip0_1_2773"><rect width="40" height="40" fill="white"></rect></clipPath></defs></svg>