<svg xmlns="http://www.w3.org/2000/svg" width="18" height="19" viewBox="0 0 18 19" fill="none"><path d="M5.73047 8.33594L7.83984 10.4805L12.7969 5.52344C13.0078 5.33594 13.207 5.34766 13.3945 5.55859L14.2031 6.33203C14.3906 6.54297 14.3906 6.74219 14.2031 6.92969L8.12109 12.9766C7.93359 13.1641 7.73438 13.1523 7.52344 12.9414L4.32422 9.74219C4.13672 9.53125 4.14844 9.33203 4.35938 9.14453L5.13281 8.33594C5.34375 8.14844 5.54297 8.14844 5.73047 8.33594ZM16.3828 3.20312C16.7109 3.32031 16.9688 3.51953 17.1562 3.80078C17.3438 4.08203 17.4375 4.39844 17.4375 4.75C17.4375 6.22656 17.2617 7.64453 16.9102 9.00391C16.5586 10.3398 16.1133 11.5 15.5742 12.4844C15.0352 13.4453 14.4023 14.3242 13.6758 15.1211C12.9727 15.8945 12.2812 16.5156 11.6016 16.9844C10.9453 17.4766 10.2891 17.8516 9.63281 18.1094C9.21094 18.2969 8.78906 18.2969 8.36719 18.1094C7.38281 17.7109 6.43359 17.1133 5.51953 16.3164C4.62891 15.543 3.80859 14.6055 3.05859 13.5039C2.30859 12.3789 1.69922 11.0547 1.23047 9.53125C0.785156 8.00781 0.5625 6.41406 0.5625 4.75C0.5625 4.60938 0.574219 4.48047 0.597656 4.36328C0.644531 4.22266 0.691406 4.09375 0.738281 3.97656C0.808594 3.85938 0.878906 3.75391 0.949219 3.66016C1.04297 3.56641 1.13672 3.48438 1.23047 3.41406C1.34766 3.32031 1.47656 3.25 1.61719 3.20312L8.36719 0.390625C8.55469 0.296875 8.76562 0.25 9 0.25C9.23438 0.25 9.44531 0.296875 9.63281 0.390625L16.3828 3.20312ZM9 16.5625C10.8047 15.8125 12.375 14.3711 13.7109 12.2383C15.0703 10.1055 15.75 7.60938 15.75 4.75L9 1.9375L2.25 4.75C2.25 7.5625 2.90625 10.0469 4.21875 12.2031C5.55469 14.3359 7.14844 15.7891 9 16.5625Z" fill="#222222"></path></svg>