<svg xmlns="http://www.w3.org/2000/svg" width="40" height="40" viewBox="0 0 40 40" fill="none"><path d="M35.8 12.3V25.2L31.9 26C31.6 25.5 31.2 25.2 30.6 25C29 24.5 27.1 25.4 26.3 27L14.8 29C14.4 28.4 13.7 27.9 12.8 27.8C11.3 27.7 9.8 28.6 9.1 30L1.5 31.3L4.2 33L8.8 32.2001C9 33.4001 9.9 34.3 11.2 34.5C13 34.7001 14.8 33.3 15.3 31.5C15.3 31.4 15.4 31.2 15.4 31.1L26 29.2001C26.2 30.2001 26.8 31 27.7 31.3C29.3 31.9 31.3 30.9 32.1 29.1C32.3 28.7 32.4 28.4 32.4 28L38.5 26.9V14L35.8 12.3Z" fill="#333333"></path><path d="M26.6 7.2L24 5.5V12.3H26.6V7.2Z" fill="#333333"></path><path d="M35.8 12.3H23.9V5.5L1.5 9.5V31.3L6.8 30.4C6.8 31.9 7.7 33.1 9.2 33.2C11 33.4 12.8 32 13.3 30.2C13.4 29.9 13.4 29.5 13.4 29.2L22.9 27.5H23.1L24 27.3C24 28.5 24.6 29.6 25.8 30C27.4 30.6 29.4 29.6 30.2 27.8C30.5 27.2 30.6 26.7 30.6 26.1L35.9 25.2V12.3H35.8Z" fill="#00796B"></path><path d="M33.8 20.2L24 22V14.3H33.9V20.2H33.8Z" fill="white"></path></svg>