<svg xmlns="http://www.w3.org/2000/svg" width="40" height="41" viewBox="0 0 40 41" fill="none"><path d="M15.5393 22.15C15.4905 18.8137 18.1555 15.6144 21.4828 14.9884C22.2029 14.8496 22.9088 14.8553 23.5518 14.9584C24.1252 15.768 24.4447 16.7741 24.4611 17.9293C24.5099 21.2657 21.8448 24.4649 18.5176 25.0909C17.7975 25.2297 17.0916 25.2241 16.4485 25.121C15.8911 24.3108 15.5557 23.3046 15.5393 22.15ZM39.7135 20.9155L39.6331 14.2751L36.5245 12.3313L34.4759 12.6661C34.2447 12.2044 33.9813 11.7591 33.6861 11.3302L36.5687 7.66247L31.8126 3.84965L28.7039 1.90585L25.6429 5.41557C25.3523 5.2915 25.0458 5.18385 24.7399 5.09207L24.6181 2.22198L21.5412 0.26062L14.9019 1.52854L14.8362 5.82914C13.4334 6.44327 12.1298 7.24833 10.9401 8.19615L7.77709 5.83538L3.15808 11.4373L6.13129 13.993C5.41291 15.3351 4.8883 16.7702 4.55687 18.2352L0.270996 19.1638L0.367874 25.8201L3.47648 27.7639L5.52509 27.4291C5.75624 27.8908 6.01968 28.3361 6.31428 28.7491L3.41586 32.4327L8.1561 36.2461L11.2647 38.1899L14.3257 34.6643C14.6164 34.7884 14.9229 34.8961 15.2288 34.9878L15.3506 37.8579L18.4592 39.8017L25.0826 38.5502L25.1483 34.2496C26.4554 33.6854 27.6961 32.929 28.8224 32.0622L29.0983 32.2667L32.2069 34.2105L36.8423 28.6245L33.8855 26.0688C34.6039 24.7267 35.1444 23.291 35.4599 21.8107L39.7135 20.9155Z" fill="#333333"></path><path d="M12.4306 20.2062C12.3819 16.8699 15.0469 13.6706 18.3742 13.0446C21.6862 12.4186 24.413 14.6088 24.4611 17.9293C24.5098 21.2657 21.8448 24.4649 18.5176 25.0909C15.2061 25.7323 12.4788 23.542 12.4306 20.2062ZM15.3512 37.8744L21.9746 36.6229L22.0403 32.3223C23.4431 31.7081 24.7631 30.9031 25.9523 29.9553L29.0988 32.2996L33.7343 26.7135L30.7775 24.1579C31.4959 22.8157 32.0363 21.3801 32.3519 19.8997L36.6055 18.9717L36.525 12.3313L32.2675 13.0032C31.8953 11.6611 31.3316 10.434 30.5945 9.37002L33.477 5.70224L28.7209 1.88942L25.6588 5.39857C24.4481 4.90285 23.1122 4.60145 21.7151 4.50967L21.5412 0.26062L14.9019 1.52854L14.8362 5.82914C13.4334 6.44327 12.1298 7.24833 10.9401 8.19615L7.77709 5.83538L3.15808 11.4373L6.13129 13.993C5.41291 15.3351 4.8883 16.7702 4.55687 18.2352L0.270996 19.1638L0.367874 25.8201L4.62542 25.1323C4.98178 26.4744 5.56078 27.6857 6.29842 28.7655L3.4 32.4492L8.14024 36.2625L11.2171 32.7205C12.4278 33.2163 13.7637 33.5335 15.1608 33.6094L15.3512 37.8744Z" fill="#00796B"></path></svg>