<svg xmlns="http://www.w3.org/2000/svg" width="40" height="40" viewBox="0 0 40 40" fill="none"><g clip-path="url(#clip0_1_2806)"><mask id="mask0_1_2806" style="mask-type:luminance" maskUnits="userSpaceOnUse" x="0" y="0" width="40" height="40"><path d="M40 0H0V40H40V0Z" fill="white"></path></mask><g mask="url(#mask0_1_2806)"><path d="M39.9977 14.2674L37.3068 13.0206H32.3943L28.6131 7.75922L25.1182 6.64001L-0.584961 28.8147L2.11798 30.5043L2.04578 30.538L7.45888 29.5777C7.43 31.0964 8.41925 32.3167 9.93559 32.4732C11.7407 32.6585 13.6013 31.2697 14.1019 29.3779C14.1885 29.0337 14.2319 28.704 14.2319 28.3742L27.7634 25.9794C27.7345 27.2261 28.394 28.3165 29.5686 28.716C31.2149 29.2889 33.2487 28.2852 34.108 26.4944C34.38 25.9216 34.4955 25.3488 34.4955 24.8024L39.9519 23.8421V23.806L40.0001 23.7963V14.2674H39.9977Z" fill="#333333"></path><path d="M29.689 13.0206L25.1208 6.64233L7.53835 9.75203L5.29512 17.2712L-0.58252 19.6998V28.8027L4.83059 27.8423C4.80171 29.3611 5.79094 30.5814 7.30728 30.7378C9.11245 30.9231 10.973 29.5344 11.4736 27.6425C11.5603 27.2984 11.6036 26.9686 11.6036 26.6389L25.1352 24.244C25.1063 25.4908 25.7658 26.5811 26.9404 26.9806C28.5867 27.5535 30.6205 26.5498 31.4798 24.7591C31.7518 24.1862 31.8673 23.6134 31.8673 23.067L37.3237 22.1067V13.0182H29.689V13.0206Z" fill="#00796B"></path><path d="M14.6362 10.5079L9.80556 11.2805L8.13037 16.7562L14.6362 15.661V10.5079Z" fill="white"></path><path d="M17.2139 15.1844L26.7813 13.4707L23.5272 8.89758L17.2139 10.0578V15.1844Z" fill="white"></path><path d="M14.66 23.404L12.0581 23.8589V21.2546L14.66 20.7997V23.404Z" fill="white"></path><path d="M17.262 20.3448L14.6602 20.7997V18.1955L17.262 17.7406V20.3448Z" fill="white"></path><path d="M19.8617 22.4798L17.2598 22.9491V20.3448L19.8617 19.8755V22.4798Z" fill="white"></path><path d="M22.4632 19.4206L19.8613 19.8755V17.2712L22.4632 16.8163V19.4206Z" fill="white"></path><path d="M25.0653 21.5699L22.4634 22.0248V19.4206L25.0653 18.9657V21.5699Z" fill="white"></path></g></g><defs><clipPath id="clip0_1_2806"><rect width="40" height="40" fill="white"></rect></clipPath></defs></svg>