<svg xmlns="http://www.w3.org/2000/svg" width="40" height="40" viewBox="0 0 40 40" fill="none"><path d="M31.1 7.09998L28.9 5.59998C32.2 7.89998 34.3 11.7 34.3 16.5C34.3 25.1 27.3 33.3 18.7 34.8C15.3 35.4 12.1 34.8 9.5 33.4L11.2 34.5C11.4 34.7 11.7 34.8 11.9 35C14.5 36.6 17.8 37.2 21.4 36.6C30.1 35.1 37 26.9 37 18.3C37 13.3 34.7 9.29998 31.1 7.09998Z" fill="#333333"></path><path d="M34.3 16.3C34.3 24.9 27.3 33.2 18.6 34.7C10 36.3 3 30.5 3 21.8C3 13.2 10 4.99999 18.6 3.39999C27.3 1.89999 34.3 7.69999 34.3 16.3Z" fill="#00796B"></path><path d="M26.1999 23L25.7999 20.6L16.1999 22.3L18.2999 19.3L14.9999 19.8L11.8999 24.2001L16.3999 27.3L19.5999 26.7001L16.5999 24.6L26.1999 23Z" fill="white"></path><path d="M21.6999 9.40002L18.4999 10L21.4999 12.1L11.8999 13.8L12.2999 16.2L21.8999 14.5L19.7999 17.5L22.9999 16.9L26.0999 12.5L21.6999 9.40002Z" fill="white"></path></svg>