<svg xmlns="http://www.w3.org/2000/svg" width="24" height="24" viewBox="0 0 24 24" fill="none"><path d="M23 22.9999H1M20.8 22.9999V10.8999M3.2 22.9999V10.8999" stroke="#00796B" stroke-width="1.9" stroke-linecap="round"></path><path d="M16.9808 1H7.01918C5.69588 1 5.03478 1 4.50348 1.3289C3.97108 1.6567 3.67518 2.2485 3.08448 3.4321L1.53898 7.336C1.18258 8.238 0.870178 9.3006 1.47078 10.0629C1.75372 10.4226 2.1418 10.6852 2.58097 10.8139C3.02015 10.9427 3.48855 10.9313 3.92094 10.7813C4.35333 10.6313 4.72819 10.3502 4.99329 9.97718C5.2584 9.60412 5.40056 9.15766 5.39998 8.7C5.39998 9.28348 5.63176 9.84305 6.04434 10.2556C6.45692 10.6682 7.0165 10.9 7.59998 10.9C8.18345 10.9 8.74303 10.6682 9.15561 10.2556C9.56819 9.84305 9.79998 9.28348 9.79998 8.7C9.79998 9.28348 10.0318 9.84305 10.4443 10.2556C10.8569 10.6682 11.4165 10.9 12 10.9C12.5835 10.9 13.143 10.6682 13.5556 10.2556C13.9682 9.84305 14.2 9.28348 14.2 8.7C14.2 9.28348 14.4318 9.84305 14.8443 10.2556C15.2569 10.6682 15.8165 10.9 16.4 10.9C16.9835 10.9 17.543 10.6682 17.9556 10.2556C18.3682 9.84305 18.6 9.28348 18.6 8.7C18.5999 9.1573 18.7424 9.60325 19.0075 9.97584C19.2726 10.3484 19.6473 10.6291 20.0794 10.7789C20.5114 10.9287 20.9794 10.9402 21.4183 10.8116C21.8572 10.6831 22.2451 10.421 22.5281 10.0618C23.1287 9.2995 22.8163 8.2369 22.4599 7.3349L20.9155 3.4321C20.3248 2.2485 20.0289 1.6567 19.4965 1.3289C18.9652 1 18.3041 1 16.9808 1Z" stroke="#00796B" stroke-width="1.9" stroke-linejoin="round"></path><path d="M9.25 22.4499V19.1499C9.25 18.1214 9.25 17.6077 9.4711 17.2249C9.61591 16.9741 9.82419 16.7658 10.075 16.621C10.4578 16.3999 10.9715 16.3999 12 16.3999C13.0285 16.3999 13.5422 16.3999 13.925 16.621C14.1758 16.7658 14.3841 16.9741 14.5289 17.2249C14.75 17.6077 14.75 18.1214 14.75 19.1499V22.4499" stroke="#00796B" stroke-width="1.9" stroke-linecap="round"></path></svg>