<svg xmlns="http://www.w3.org/2000/svg" width="26" height="26" viewBox="0 0 26 26" fill="none"><path fill-rule="evenodd" clip-rule="evenodd" d="M18.9514 1.80489C16.1271 1.80489 13.8375 4.09445 13.8375 6.91876C13.8375 7.73845 14.0298 8.51065 14.3707 9.19516C14.562 9.57929 14.6413 10.0499 14.5151 10.5215L14.2105 11.6596L15.3487 11.3551C15.8203 11.229 16.2908 11.3081 16.675 11.4995C17.3596 11.8405 18.1317 12.0326 18.9514 12.0326C21.7757 12.0326 24.0652 9.74307 24.0652 6.91876C24.0652 4.09445 21.7757 1.80489 18.9514 1.80489ZM12.0326 6.91876C12.0326 3.09763 15.1303 0 18.9514 0C22.7726 0 25.8701 3.09763 25.8701 6.91876C25.8701 10.7398 22.7726 13.8375 18.9514 13.8375C17.8463 13.8375 16.7992 13.5777 15.8703 13.1151C15.8495 13.1047 15.8328 13.1006 15.8227 13.0994C15.818 13.0988 15.8152 13.099 15.814 13.099L14.476 13.457C13.2237 13.792 12.0781 12.6464 12.4132 11.3943L12.7712 10.0562C12.7713 10.0551 12.7713 10.0522 12.7707 10.0475C12.7695 10.0374 12.7654 10.0206 12.7551 9.99985C12.2924 9.07099 12.0326 8.02392 12.0326 6.91876ZM2.96929 3.41983C4.4447 1.86649 6.88518 2.15751 8.1048 3.88248L9.6221 6.02849C10.5976 7.40822 10.5152 9.32643 9.35097 10.5521L9.05635 10.8623C9.05553 10.8645 9.05467 10.8668 9.05378 10.8693C9.03821 10.9131 8.99883 11.0524 9.03758 11.3168C9.1179 11.8649 9.54103 12.9788 11.2589 14.7874C12.9821 16.6017 14.0274 17.0292 14.5117 17.1079C14.7207 17.1418 14.83 17.1123 14.8649 17.1L15.3565 16.5824C16.4079 15.4755 18.0471 15.2574 19.3689 16.0182L21.6677 17.3414C23.6326 18.4724 24.0899 21.2388 22.5197 22.892L20.8104 24.6915C20.2769 25.2532 19.5494 25.7326 18.6506 25.8214C16.4559 26.038 11.372 25.7558 6.04231 20.1447C1.06902 14.9088 0.124243 10.3545 0.00481926 8.1294C-0.0541887 7.03001 0.435864 6.08703 1.08063 5.40821L2.96929 3.41983ZM6.63105 4.92447C6.01456 4.05253 4.90704 4.0005 4.27793 4.66284L2.38929 6.65121C1.99054 7.07102 1.78133 7.55221 1.80711 8.03267C1.90463 9.84937 2.68696 13.9913 7.35095 18.9017C12.2413 24.0502 16.7465 24.1957 18.4732 24.0252C18.8147 23.9915 19.1659 23.8021 19.5018 23.4486L21.211 21.649C21.9483 20.8728 21.7551 19.4742 20.7673 18.9057L18.4685 17.5824C17.8516 17.2274 17.1289 17.3371 16.6652 17.8254L16.1171 18.4023L15.4629 17.7809C16.1171 18.4023 16.1164 18.4032 16.1155 18.4041L16.1137 18.4059L16.1102 18.4096L16.1025 18.4174L16.0853 18.4343C16.0729 18.4464 16.0586 18.4596 16.0425 18.4738C16.0101 18.5021 15.9701 18.5345 15.922 18.5686C15.8255 18.637 15.6972 18.7122 15.5348 18.7762C15.2027 18.9071 14.7641 18.9774 14.2224 18.8894C13.1665 18.718 11.7826 17.9595 9.95022 16.0303C8.11242 14.0955 7.40904 12.6519 7.25176 11.5785C7.1717 11.0321 7.23577 10.5946 7.35332 10.2642C7.41114 10.1018 7.4794 9.97221 7.54236 9.87383C7.57375 9.82478 7.60368 9.7837 7.63012 9.75028C7.64335 9.73356 7.6557 9.71876 7.66697 9.70582L7.68299 9.68779L7.69035 9.6798L7.69384 9.67606L7.69553 9.67426C7.69637 9.67338 7.69721 9.6725 8.35153 10.294L7.69721 9.6725L8.04231 9.30916C8.57841 8.74475 8.6563 7.7889 8.14836 7.07047L6.63105 4.92447Z" fill="#00796B"></path><path d="M16.7854 8.3147H21.1171" stroke="#00796B" stroke-width="1.7" stroke-linecap="round"></path><path d="M16.7855 5.42676H21.1173" stroke="#00796B" stroke-width="1.7" stroke-linecap="round"></path></svg>