<svg xmlns="http://www.w3.org/2000/svg" width="20" height="20" viewBox="0 0 20 20" fill="none"><path d="M18.9062 8.01953C19.3021 8.5638 19.5 9.18229 19.5 9.875C19.5 10.5677 19.3021 11.1986 18.9062 11.7676C18.5104 12.3118 18.0033 12.6953 17.3848 12.918C17.6569 13.5117 17.7311 14.1549 17.6074 14.8477C17.5085 15.5156 17.2116 16.097 16.7168 16.5918C16.222 17.0866 15.6406 17.3835 14.9727 17.4824C14.3047 17.6061 13.6615 17.5319 13.043 17.2598C12.8945 17.6803 12.6719 18.0391 12.375 18.3359C12.0781 18.6576 11.7194 18.9049 11.2988 19.0781C10.903 19.276 10.4701 19.375 10 19.375C9.30729 19.375 8.67643 19.1771 8.10742 18.7812C7.56315 18.3854 7.17969 17.8783 6.95703 17.2598C6.33854 17.5319 5.69531 17.6061 5.02734 17.4824C4.35938 17.3835 3.77799 17.0866 3.2832 16.5918C2.78841 16.097 2.47917 15.5156 2.35547 14.8477C2.25651 14.1549 2.3431 13.5117 2.61523 12.918C1.99674 12.6953 1.48958 12.3118 1.09375 11.7676C0.697917 11.1986 0.5 10.5677 0.5 9.875C0.5 9.18229 0.697917 8.5638 1.09375 8.01953C1.48958 7.45052 1.99674 7.05469 2.61523 6.83203C2.3431 6.23828 2.25651 5.60742 2.35547 4.93945C2.47917 4.24674 2.78841 3.65299 3.2832 3.1582C3.77799 2.66341 4.35938 2.36654 5.02734 2.26758C5.72005 2.14388 6.36328 2.2181 6.95703 2.49023C7.17969 1.87174 7.56315 1.36458 8.10742 0.96875C8.67643 0.572917 9.30729 0.375 10 0.375C10.6927 0.375 11.3112 0.572917 11.8555 0.96875C12.4245 1.36458 12.8203 1.87174 13.043 2.49023C13.6367 2.2181 14.2676 2.14388 14.9355 2.26758C15.6283 2.36654 16.222 2.66341 16.7168 3.1582C17.2116 3.65299 17.5085 4.24674 17.6074 4.93945C17.7311 5.60742 17.6569 6.23828 17.3848 6.83203C18.0033 7.05469 18.5104 7.45052 18.9062 8.01953ZM8.44141 6.68359C8.21875 6.4362 7.94661 6.3125 7.625 6.3125C7.30339 6.3125 7.01888 6.4362 6.77148 6.68359C6.54883 6.90625 6.4375 7.17839 6.4375 7.5C6.4375 7.82161 6.54883 8.10612 6.77148 8.35352C7.01888 8.57617 7.30339 8.6875 7.625 8.6875C7.94661 8.6875 8.21875 8.57617 8.44141 8.35352C8.6888 8.10612 8.8125 7.82161 8.8125 7.5C8.8125 7.17839 8.6888 6.90625 8.44141 6.68359ZM8.07031 13.0664L13.1914 7.94531C13.4635 7.67318 13.4635 7.40104 13.1914 7.12891L12.7461 6.68359C12.474 6.41146 12.2018 6.41146 11.9297 6.68359L6.80859 11.8047C6.53646 12.0768 6.53646 12.349 6.80859 12.6211L7.25391 13.0664C7.52604 13.3385 7.79818 13.3385 8.07031 13.0664ZM11.5215 13.1035C11.7689 13.3262 12.0534 13.4375 12.375 13.4375C12.6966 13.4375 12.9688 13.3262 13.1914 13.1035C13.4388 12.8561 13.5625 12.5716 13.5625 12.25C13.5625 11.9284 13.4388 11.6562 13.1914 11.4336C12.9688 11.1862 12.6966 11.0625 12.375 11.0625C12.0534 11.0625 11.7689 11.1862 11.5215 11.4336C11.2988 11.6562 11.1875 11.9284 11.1875 12.25C11.1875 12.5716 11.2988 12.8561 11.5215 13.1035Z" fill="#222222"></path></svg>