<svg xmlns="http://www.w3.org/2000/svg" width="18" height="18" viewBox="0 0 18 18" fill="none"><g clip-path="url(#clip0_202_12876)"><path d="M17.1438 0.00767854L6.64388 1.50768C6.27439 1.56045 5.99996 1.87689 5.99996 2.25014V5.2501V12.5939C5.36814 12.2182 4.58564 12.0001 3.74998 12.0001C1.71818 12.0001 0 13.2886 0 15C0 16.7114 1.71814 18 3.74998 18C5.78179 18 7.49996 16.7114 7.49996 15V5.90059L16.4999 4.6149V10.344C15.8681 9.96825 15.0856 9.7501 14.2499 9.7501C12.2181 9.7501 10.4999 11.0386 10.4999 12.7501C10.4999 14.4615 12.2181 15.75 14.2499 15.75C16.2817 15.75 17.9999 14.4615 17.9999 12.7501V3.75014V0.750138C17.9999 0.293743 17.5956 -0.0568678 17.1438 0.00767854ZM3.74998 16.5C2.46816 16.5 1.5 15.7739 1.5 15C1.5 14.2261 2.46816 13.5 3.74998 13.5C5.0318 13.5 5.99996 14.2261 5.99996 15C5.99996 15.7739 5.0318 16.5 3.74998 16.5ZM7.49993 2.90059L16.4999 1.6149V3.09968L7.49993 4.38537V2.90059ZM14.2499 14.25C12.9681 14.25 11.9999 13.524 11.9999 12.75C11.9999 11.9761 12.9681 11.25 14.2499 11.25C15.5317 11.25 16.4999 11.9761 16.4999 12.75C16.4999 13.524 15.5317 14.25 14.2499 14.25Z" fill="#111111"></path></g><defs><clipPath id="clip0_202_12876"><rect width="18" height="18" fill="white"></rect></clipPath></defs></svg>