<svg xmlns="http://www.w3.org/2000/svg" width="20" height="20" viewBox="0 0 20 20" fill="none"><g clip-path="url(#clip0_202_12857)"><path d="M10 0C4.46809 0 0 4.46809 0 10C0 15.532 4.46809 20 10 20C15.532 20 20 15.532 20 10C20 4.46809 15.5319 0 10 0ZM10 18.3404C5.40427 18.3404 1.65958 14.5957 1.65958 9.99998C1.65958 5.40423 5.40427 1.65958 10 1.65958C14.5958 1.65958 18.3405 5.40427 18.3405 10C18.3405 14.5958 14.5958 18.3404 10 18.3404Z" fill="#111111"></path><path d="M14.6809 5.36181C14.4256 5.10649 14.0426 5.02136 13.7022 5.19158L8.25536 7.87244C8.08514 7.95753 7.95748 8.08519 7.87238 8.25542L5.19153 13.6597C5.06387 14.0001 5.10644 14.3831 5.36176 14.6384C5.53198 14.8086 5.74474 14.8937 5.95749 14.8937C6.04258 14.8937 6.17024 14.8512 6.2979 14.8086L11.7447 12.1278C11.9149 12.0427 12.0426 11.915 12.1277 11.7448L14.8511 6.34052C14.9788 6.00011 14.9362 5.61713 14.6809 5.36181ZM10.7234 10.7235L7.74468 12.2129L9.23403 9.23413L12.2128 7.74478L10.7234 10.7235Z" fill="#111111"></path></g><defs><clipPath id="clip0_202_12857"><rect width="20" height="20" fill="white"></rect></clipPath></defs></svg>